<svg xmlns="http://www.w3.org/2000/svg" width="1200" height="800" viewBox="0 0 1200 800" role="img" aria-label="O bebê Moisés é encontrado no cesto às margens do Nilo">

  <defs>
    <linearGradient id="creamLight" x1="0" y1="0" x2="0" y2="1">
      <stop stop-color="#FFFBF0"/><stop offset="1" stop-color="#F3E9D7"/>
    </linearGradient>
    <linearGradient id="daySky" x1="0" y1="0" x2="0" y2="1">
      <stop stop-color="#63AFE2"/><stop offset=".6" stop-color="#CDEEFF"/><stop offset="1" stop-color="#FFF1C7"/>
    </linearGradient>
    <linearGradient id="morningSky" x1="0" y1="0" x2="0" y2="1">
      <stop stop-color="#4B779A"/><stop offset=".4" stop-color="#F7A064"/><stop offset=".8" stop-color="#FCE0B0"/><stop offset="1" stop-color="#FFF5D6"/>
    </linearGradient>
    <linearGradient id="sunsetSky" x1="0" y1="0" x2="0" y2="1">
      <stop stop-color="#14213D"/><stop offset=".35" stop-color="#1D4689"/><stop offset=".65" stop-color="#FF7A29"/><stop offset="1" stop-color="#FFC93C"/>
    </linearGradient>
    <linearGradient id="nightSky" x1="0" y1="0" x2="0" y2="1">
      <stop stop-color="#07152F"/><stop offset=".6" stop-color="#14213D"/><stop offset="1" stop-color="#1D4689"/>
    </linearGradient>
    <linearGradient id="stormSky" x1="0" y1="0" x2="0" y2="1">
      <stop stop-color="#121D2B"/><stop offset=".5" stop-color="#2D3E52"/><stop offset="1" stop-color="#4B627D"/>
    </linearGradient>
    <linearGradient id="water" x1="0" y1="0" x2="1" y2="1">
      <stop stop-color="#2C78BD"/><stop offset=".55" stop-color="#68BDE7"/><stop offset="1" stop-color="#BDEBFA"/>
    </linearGradient>
    <linearGradient id="oceanDeep" x1="0" y1="0" x2="0" y2="1">
      <stop stop-color="#08182B"/><stop offset=".5" stop-color="#133E6E"/><stop offset="1" stop-color="#246CA8"/>
    </linearGradient>
    <linearGradient id="seaWall" x1="0" y1="0" x2="1" y2="0">
      <stop stop-color="#1D659E" stop-opacity=".92"/><stop offset=".5" stop-color="#4FA6DF" stop-opacity=".85"/><stop offset="1" stop-color="#82D2F5" stop-opacity=".95"/>
    </linearGradient>
    <linearGradient id="garden" x1="0" y1="0" x2="0" y2="1">
      <stop stop-color="#7DBB5E"/><stop offset="1" stop-color="#2F7B45"/>
    </linearGradient>
    <linearGradient id="hills" x1="0" y1="0" x2="0" y2="1">
      <stop stop-color="#94CD6E"/><stop offset=".6" stop-color="#55A14A"/><stop offset="1" stop-color="#2C6E38"/>
    </linearGradient>
    <linearGradient id="desert" x1="0" y1="0" x2="0" y2="1">
      <stop stop-color="#F5DB99"/><stop offset=".65" stop-color="#DFB35A"/><stop offset="1" stop-color="#A87A2A"/>
    </linearGradient>
    <linearGradient id="sandDune" x1="0" y1="0" x2="0" y2="1">
      <stop stop-color="#FCEAB3"/><stop offset="1" stop-color="#E2B868"/>
    </linearGradient>
    <linearGradient id="palaceWall" x1="0" y1="0" x2="0" y2="1">
      <stop stop-color="#FFF7E3"/><stop offset=".7" stop-color="#E8D5B0"/><stop offset="1" stop-color="#CBB184"/>
    </linearGradient>
    <linearGradient id="palaceGold" x1="0" y1="0" x2="1" y2="1">
      <stop stop-color="#FFF0A0"/><stop offset=".5" stop-color="#FFC93C"/><stop offset="1" stop-color="#EBA317"/>
    </linearGradient>
    <linearGradient id="woodArk" x1="0" y1="0" x2="0" y2="1">
      <stop stop-color="#8B572A"/><stop offset=".5" stop-color="#6F3F19"/><stop offset="1" stop-color="#4A260B"/>
    </linearGradient>
    <linearGradient id="stoneDen" x1="0" y1="0" x2="0" y2="1">
      <stop stop-color="#283547"/><stop offset=".6" stop-color="#182332"/><stop offset="1" stop-color="#0E1622"/>
    </linearGradient>
    <linearGradient id="fireCol" x1="0" y1="1" x2="0" y2="0">
      <stop stop-color="#FF4500"/><stop offset=".4" stop-color="#FF7A29"/><stop offset=".8" stop-color="#FFC93C"/><stop offset="1" stop-color="#FFF9D6"/>
    </linearGradient>
    <radialGradient id="divineLight">
      <stop stop-color="#FFFDE0" stop-opacity=".96"/><stop offset=".45" stop-color="#FFC93C" stop-opacity=".42"/><stop offset="1" stop-color="#FFC93C" stop-opacity="0"/>
    </radialGradient>
    <radialGradient id="angelGlow">
      <stop stop-color="#FFFFFF" stop-opacity=".98"/><stop offset=".4" stop-color="#FFE885" stop-opacity=".55"/><stop offset="1" stop-color="#FFE885" stop-opacity="0"/>
    </radialGradient>
    <radialGradient id="sunGlow">
      <stop stop-color="#FFF5B8" stop-opacity="1"/><stop offset=".35" stop-color="#FFC93C" stop-opacity=".8"/><stop offset="1" stop-color="#FF7A29" stop-opacity="0"/>
    </radialGradient>
    <filter id="softShadow" x="-30%" y="-30%" width="160%" height="180%">
      <feDropShadow dx="0" dy="12" stdDeviation="14" flood-color="#14213D" flood-opacity=".25"/>
    </filter>
    <filter id="cardShadow" x="-20%" y="-20%" width="140%" height="150%">
      <feDropShadow dx="0" dy="6" stdDeviation="8" flood-color="#0B1830" flood-opacity=".18"/>
    </filter>
    <filter id="glow" x="-80%" y="-80%" width="260%" height="260%">
      <feGaussianBlur stdDeviation="10" result="blur"/><feMerge><feMergeNode in="blur"/><feMergeNode in="SourceGraphic"/></feMerge>
    </filter>
    <filter id="strongGlow" x="-100%" y="-100%" width="300%" height="300%">
      <feGaussianBlur stdDeviation="18" result="blur"/><feMerge><feMergeNode in="blur"/><feMergeNode in="SourceGraphic"/></feMerge>
    </filter>
  </defs>

      <rect width="1200" height="800" fill="url(#daySky)"/>
      <circle cx="950" cy="150" r="120" fill="url(#sunGlow)"/>
      
    <g opacity=".85">
      <path d="M120 180 q40 -50 90 -20 q50 -60 110 -15 q60 -30 100 20 q30 50 -20 60 h-260 q-50 -10 -20 -45z" fill="#FFFFFF" opacity=".7"/>
      <path d="M780 140 q35 -40 80 -15 q45 -50 95 -10 q50 -25 85 15 q25 40 -15 50 h-220 q-40 -10 -25 -40z" fill="#FFFFFF" opacity=".65"/>
      <path d="M450 210 q30 -35 70 -12 q40 -40 85 -10 q45 -20 75 12 q20 35 -15 45 h-190 q-35 -10 -25 -35z" fill="#FFFFFF" opacity=".5"/>
    </g>
      <!-- Rio Nilo calmo -->
      <path d="M0 400 Q400 350 800 410 T1200 390 V800 H0 Z" fill="url(#water)"/>
      <!-- Juncos e papiros verdes -->
      <path d="M40 680 Q20 550 40 420" stroke="#2F7B45" stroke-width="14" stroke-linecap="round" fill="none"/><path d="M85 680 Q105 530 85 380" stroke="#2F7B45" stroke-width="14" stroke-linecap="round" fill="none"/><path d="M130 680 Q110 510 130 340" stroke="#2F7B45" stroke-width="14" stroke-linecap="round" fill="none"/><path d="M175 680 Q195 490 175 300" stroke="#2F7B45" stroke-width="14" stroke-linecap="round" fill="none"/><path d="M220 680 Q200 470 220 260" stroke="#2F7B45" stroke-width="14" stroke-linecap="round" fill="none"/><path d="M265 680 Q285 550 265 420" stroke="#2F7B45" stroke-width="14" stroke-linecap="round" fill="none"/><path d="M310 680 Q290 530 310 380" stroke="#2F7B45" stroke-width="14" stroke-linecap="round" fill="none"/><path d="M355 680 Q375 510 355 340" stroke="#2F7B45" stroke-width="14" stroke-linecap="round" fill="none"/><path d="M400 680 Q380 490 400 300" stroke="#2F7B45" stroke-width="14" stroke-linecap="round" fill="none"/><path d="M445 680 Q465 470 445 260" stroke="#2F7B45" stroke-width="14" stroke-linecap="round" fill="none"/><path d="M490 680 Q470 550 490 420" stroke="#2F7B45" stroke-width="14" stroke-linecap="round" fill="none"/><path d="M535 680 Q555 530 535 380" stroke="#2F7B45" stroke-width="14" stroke-linecap="round" fill="none"/><path d="M580 680 Q560 510 580 340" stroke="#2F7B45" stroke-width="14" stroke-linecap="round" fill="none"/><path d="M625 680 Q645 490 625 300" stroke="#2F7B45" stroke-width="14" stroke-linecap="round" fill="none"/><path d="M670 680 Q650 470 670 260" stroke="#2F7B45" stroke-width="14" stroke-linecap="round" fill="none"/><path d="M715 680 Q735 550 715 420" stroke="#2F7B45" stroke-width="14" stroke-linecap="round" fill="none"/><path d="M760 680 Q740 530 760 380" stroke="#2F7B45" stroke-width="14" stroke-linecap="round" fill="none"/><path d="M805 680 Q825 510 805 340" stroke="#2F7B45" stroke-width="14" stroke-linecap="round" fill="none"/>
      <!-- Flor de lótus flutuando -->
      <circle cx="260" cy="580" r="14" fill="#FF85C0"/>
      <circle cx="340" cy="620" r="16" fill="#FFFFFF"/>
      <!-- Cesto impermeabilizado com piche -->
      <g transform="translate(480 560)" filter="url(#softShadow)">
        <ellipse cx="0" cy="30" rx="90" ry="45" fill="#8C5828"/>
        <ellipse cx="0" cy="20" rx="78" ry="36" fill="#DDA876"/>
        <!-- Bebê Moisés enroladinho em panos brancos -->
        <ellipse cx="0" cy="15" rx="50" ry="24" fill="#FFFFFF"/>
        <circle cx="28" cy="8" r="16" fill="#E8B084"/>
        <circle cx="32" cy="6" r="2.5" fill="#14213D"/>
      </g>
      <!-- Princesa egípcia encontrando o bebê com ternura -->
      <g transform="translate(760 480)" filter="url(#softShadow)">
        <path d="M-35 40 Q0 10 35 40 L45 190 H-45 Z" fill="#FFFFFF"/>
        <ellipse cx="0" cy="25" rx="28" ry="12" fill="#FFD700"/>
        <circle cx="0" cy="-30" r="28" fill="#DDA876"/>
        <!-- Cabelo preto com tiara de ouro -->
        <path d="M-30 -32 C-30 -65 30 -65 30 -32 L34 20 L24 20 L20 -32 C10 -50 -10 -50 -20 -32 L-24 20 L-34 20 Z" fill="#14213D"/>
        <rect x="-24" y="-48" width="48" height="8" rx="2" fill="#FFD700"/>
        <!-- Braços estendidos com carinho -->
        <path d="M-30 45 Q-70 60 -110 50" stroke="#DDA876" stroke-width="14" stroke-linecap="round" fill="none"/>
      </g>
    
</svg>
