<svg xmlns="http://www.w3.org/2000/svg" width="1200" height="800" viewBox="0 0 1200 800" role="img" aria-label="O povo de Israel atravessa o mar a pé enxuto">

  <defs>
    <linearGradient id="creamLight" x1="0" y1="0" x2="0" y2="1">
      <stop stop-color="#FFFBF0"/><stop offset="1" stop-color="#F3E9D7"/>
    </linearGradient>
    <linearGradient id="daySky" x1="0" y1="0" x2="0" y2="1">
      <stop stop-color="#63AFE2"/><stop offset=".6" stop-color="#CDEEFF"/><stop offset="1" stop-color="#FFF1C7"/>
    </linearGradient>
    <linearGradient id="morningSky" x1="0" y1="0" x2="0" y2="1">
      <stop stop-color="#4B779A"/><stop offset=".4" stop-color="#F7A064"/><stop offset=".8" stop-color="#FCE0B0"/><stop offset="1" stop-color="#FFF5D6"/>
    </linearGradient>
    <linearGradient id="sunsetSky" x1="0" y1="0" x2="0" y2="1">
      <stop stop-color="#14213D"/><stop offset=".35" stop-color="#1D4689"/><stop offset=".65" stop-color="#FF7A29"/><stop offset="1" stop-color="#FFC93C"/>
    </linearGradient>
    <linearGradient id="nightSky" x1="0" y1="0" x2="0" y2="1">
      <stop stop-color="#07152F"/><stop offset=".6" stop-color="#14213D"/><stop offset="1" stop-color="#1D4689"/>
    </linearGradient>
    <linearGradient id="stormSky" x1="0" y1="0" x2="0" y2="1">
      <stop stop-color="#121D2B"/><stop offset=".5" stop-color="#2D3E52"/><stop offset="1" stop-color="#4B627D"/>
    </linearGradient>
    <linearGradient id="water" x1="0" y1="0" x2="1" y2="1">
      <stop stop-color="#2C78BD"/><stop offset=".55" stop-color="#68BDE7"/><stop offset="1" stop-color="#BDEBFA"/>
    </linearGradient>
    <linearGradient id="oceanDeep" x1="0" y1="0" x2="0" y2="1">
      <stop stop-color="#08182B"/><stop offset=".5" stop-color="#133E6E"/><stop offset="1" stop-color="#246CA8"/>
    </linearGradient>
    <linearGradient id="seaWall" x1="0" y1="0" x2="1" y2="0">
      <stop stop-color="#1D659E" stop-opacity=".92"/><stop offset=".5" stop-color="#4FA6DF" stop-opacity=".85"/><stop offset="1" stop-color="#82D2F5" stop-opacity=".95"/>
    </linearGradient>
    <linearGradient id="garden" x1="0" y1="0" x2="0" y2="1">
      <stop stop-color="#7DBB5E"/><stop offset="1" stop-color="#2F7B45"/>
    </linearGradient>
    <linearGradient id="hills" x1="0" y1="0" x2="0" y2="1">
      <stop stop-color="#94CD6E"/><stop offset=".6" stop-color="#55A14A"/><stop offset="1" stop-color="#2C6E38"/>
    </linearGradient>
    <linearGradient id="desert" x1="0" y1="0" x2="0" y2="1">
      <stop stop-color="#F5DB99"/><stop offset=".65" stop-color="#DFB35A"/><stop offset="1" stop-color="#A87A2A"/>
    </linearGradient>
    <linearGradient id="sandDune" x1="0" y1="0" x2="0" y2="1">
      <stop stop-color="#FCEAB3"/><stop offset="1" stop-color="#E2B868"/>
    </linearGradient>
    <linearGradient id="palaceWall" x1="0" y1="0" x2="0" y2="1">
      <stop stop-color="#FFF7E3"/><stop offset=".7" stop-color="#E8D5B0"/><stop offset="1" stop-color="#CBB184"/>
    </linearGradient>
    <linearGradient id="palaceGold" x1="0" y1="0" x2="1" y2="1">
      <stop stop-color="#FFF0A0"/><stop offset=".5" stop-color="#FFC93C"/><stop offset="1" stop-color="#EBA317"/>
    </linearGradient>
    <linearGradient id="woodArk" x1="0" y1="0" x2="0" y2="1">
      <stop stop-color="#8B572A"/><stop offset=".5" stop-color="#6F3F19"/><stop offset="1" stop-color="#4A260B"/>
    </linearGradient>
    <linearGradient id="stoneDen" x1="0" y1="0" x2="0" y2="1">
      <stop stop-color="#283547"/><stop offset=".6" stop-color="#182332"/><stop offset="1" stop-color="#0E1622"/>
    </linearGradient>
    <linearGradient id="fireCol" x1="0" y1="1" x2="0" y2="0">
      <stop stop-color="#FF4500"/><stop offset=".4" stop-color="#FF7A29"/><stop offset=".8" stop-color="#FFC93C"/><stop offset="1" stop-color="#FFF9D6"/>
    </linearGradient>
    <radialGradient id="divineLight">
      <stop stop-color="#FFFDE0" stop-opacity=".96"/><stop offset=".45" stop-color="#FFC93C" stop-opacity=".42"/><stop offset="1" stop-color="#FFC93C" stop-opacity="0"/>
    </radialGradient>
    <radialGradient id="angelGlow">
      <stop stop-color="#FFFFFF" stop-opacity=".98"/><stop offset=".4" stop-color="#FFE885" stop-opacity=".55"/><stop offset="1" stop-color="#FFE885" stop-opacity="0"/>
    </radialGradient>
    <radialGradient id="sunGlow">
      <stop stop-color="#FFF5B8" stop-opacity="1"/><stop offset=".35" stop-color="#FFC93C" stop-opacity=".8"/><stop offset="1" stop-color="#FF7A29" stop-opacity="0"/>
    </radialGradient>
    <filter id="softShadow" x="-30%" y="-30%" width="160%" height="180%">
      <feDropShadow dx="0" dy="12" stdDeviation="14" flood-color="#14213D" flood-opacity=".25"/>
    </filter>
    <filter id="cardShadow" x="-20%" y="-20%" width="140%" height="150%">
      <feDropShadow dx="0" dy="6" stdDeviation="8" flood-color="#0B1830" flood-opacity=".18"/>
    </filter>
    <filter id="glow" x="-80%" y="-80%" width="260%" height="260%">
      <feGaussianBlur stdDeviation="10" result="blur"/><feMerge><feMergeNode in="blur"/><feMergeNode in="SourceGraphic"/></feMerge>
    </filter>
    <filter id="strongGlow" x="-100%" y="-100%" width="300%" height="300%">
      <feGaussianBlur stdDeviation="18" result="blur"/><feMerge><feMergeNode in="blur"/><feMergeNode in="SourceGraphic"/></feMerge>
    </filter>
  </defs>

      <rect width="1200" height="800" fill="url(#daySky)"/>
      <circle cx="600" cy="120" r="160" fill="url(#sunGlow)"/>
      <!-- Muralhas gigantescas do mar aberto -->
      <path d="M0 0 L240 0 L180 800 L0 800 Z" fill="url(#seaWall)"/>
      <path d="M960 0 L1200 0 L1200 800 L1020 800 Z" fill="url(#seaWall)"/>
      <!-- Borrifos e cristas de água -->
      <path d="M220 50 Q180 250 200 500 T190 750" stroke="#FFFFFF" stroke-width="12" stroke-linecap="round" fill="none" opacity=".9"/>
      <path d="M980 50 Q1020 250 1000 500 T1010 750" stroke="#FFFFFF" stroke-width="12" stroke-linecap="round" fill="none" opacity=".9"/>
      <!-- Chão seco com conchas -->
      <polygon points="240,0 960,0 1020,800 180,800" fill="url(#desert)"/>
      <!-- Povo atravessando com cânticos de alegria -->
      <g transform="translate(600 480)">
        
    <g transform="translate(0 0) scale(1.35)" filter="url(#softShadow)">
      <!-- Túnica e manto do líder -->
      <path d="M-36 30 Q0 0 36 30 L45 160 H-45 Z" fill="#9C3D28"/>
      <path d="M-28 40 Q0 60 28 40 L35 150 H-35 Z" fill="#FFF5E0"/>
      <!-- Faixa na cintura -->
      <rect x="-32" y="80" width="64" height="14" rx="4" fill="#6F3F19"/>
      <!-- Cabeça de Moisés com barba branca/grisalha -->
      <circle cx="0" cy="-30" r="28" fill="#E8B084"/>
      <path d="M-25 -15 Q0 60 25 -15 Q20 45 0 50 Q-20 45 -25 -15 Z" fill="#EDEDED"/>
      <circle cx="-10" cy="-32" r="4" fill="#14213D"/>
      <circle cx="10" cy="-32" r="4" fill="#14213D"/>
      <!-- Braço e Cajado -->
      
        <path d="M25 40 Q55 -10 65 -50" stroke="#E8B084" stroke-width="16" stroke-linecap="round" fill="none"/>
        <!-- Cajado estendido aos céus -->
        <path d="M65 -130 L65 190" stroke="#7A4D27" stroke-width="12" stroke-linecap="round"/>
        <!-- Brilho no topo do cajado -->
        <circle cx="65" cy="-130" r="16" fill="#FFF8C5" filter="url(#strongGlow)"/>
      
    </g>
        <!-- Famílias caminhando à frente com alegria -->
        <g transform="translate(-180 40)">
          <path d="M-20 20 L20 20 L15 90 H-15 Z" fill="#FF7A29"/>
          <circle cx="0" cy="-10" r="18" fill="#E8B084"/>
        </g>
        <g transform="translate(180 30)">
          <path d="M-20 20 L20 20 L15 90 H-15 Z" fill="#2E7D32"/>
          <circle cx="0" cy="-10" r="18" fill="#E8B084"/>
          <!-- Tamborim de Miriam -->
          <circle cx="28" cy="15" r="12" fill="#FFD700"/>
        </g>
      </g>
    
</svg>
