<svg xmlns="http://www.w3.org/2000/svg" width="1200" height="800" viewBox="0 0 1200 800" role="img" aria-label="Vestidos com túnicas, Adão e Eva caminham juntos por uma estrada iluminada enquanto uma nova planta nasce">

  <defs>
    <linearGradient id="creamLight" x1="0" y1="0" x2="0" y2="1">
      <stop stop-color="#FFFBF0"/><stop offset="1" stop-color="#F3E9D7"/>
    </linearGradient>
    <linearGradient id="daySky" x1="0" y1="0" x2="0" y2="1">
      <stop stop-color="#63AFE2"/><stop offset=".6" stop-color="#CDEEFF"/><stop offset="1" stop-color="#FFF1C7"/>
    </linearGradient>
    <linearGradient id="morningSky" x1="0" y1="0" x2="0" y2="1">
      <stop stop-color="#4B779A"/><stop offset=".4" stop-color="#F7A064"/><stop offset=".8" stop-color="#FCE0B0"/><stop offset="1" stop-color="#FFF5D6"/>
    </linearGradient>
    <linearGradient id="sunsetSky" x1="0" y1="0" x2="0" y2="1">
      <stop stop-color="#14213D"/><stop offset=".35" stop-color="#1D4689"/><stop offset=".65" stop-color="#FF7A29"/><stop offset="1" stop-color="#FFC93C"/>
    </linearGradient>
    <linearGradient id="nightSky" x1="0" y1="0" x2="0" y2="1">
      <stop stop-color="#07152F"/><stop offset=".6" stop-color="#14213D"/><stop offset="1" stop-color="#1D4689"/>
    </linearGradient>
    <linearGradient id="stormSky" x1="0" y1="0" x2="0" y2="1">
      <stop stop-color="#121D2B"/><stop offset=".5" stop-color="#2D3E52"/><stop offset="1" stop-color="#4B627D"/>
    </linearGradient>
    <linearGradient id="water" x1="0" y1="0" x2="1" y2="1">
      <stop stop-color="#2C78BD"/><stop offset=".55" stop-color="#68BDE7"/><stop offset="1" stop-color="#BDEBFA"/>
    </linearGradient>
    <linearGradient id="oceanDeep" x1="0" y1="0" x2="0" y2="1">
      <stop stop-color="#08182B"/><stop offset=".5" stop-color="#133E6E"/><stop offset="1" stop-color="#246CA8"/>
    </linearGradient>
    <linearGradient id="seaWall" x1="0" y1="0" x2="1" y2="0">
      <stop stop-color="#1D659E" stop-opacity=".92"/><stop offset=".5" stop-color="#4FA6DF" stop-opacity=".85"/><stop offset="1" stop-color="#82D2F5" stop-opacity=".95"/>
    </linearGradient>
    <linearGradient id="garden" x1="0" y1="0" x2="0" y2="1">
      <stop stop-color="#7DBB5E"/><stop offset="1" stop-color="#2F7B45"/>
    </linearGradient>
    <linearGradient id="hills" x1="0" y1="0" x2="0" y2="1">
      <stop stop-color="#94CD6E"/><stop offset=".6" stop-color="#55A14A"/><stop offset="1" stop-color="#2C6E38"/>
    </linearGradient>
    <linearGradient id="desert" x1="0" y1="0" x2="0" y2="1">
      <stop stop-color="#F5DB99"/><stop offset=".65" stop-color="#DFB35A"/><stop offset="1" stop-color="#A87A2A"/>
    </linearGradient>
    <linearGradient id="sandDune" x1="0" y1="0" x2="0" y2="1">
      <stop stop-color="#FCEAB3"/><stop offset="1" stop-color="#E2B868"/>
    </linearGradient>
    <linearGradient id="palaceWall" x1="0" y1="0" x2="0" y2="1">
      <stop stop-color="#FFF7E3"/><stop offset=".7" stop-color="#E8D5B0"/><stop offset="1" stop-color="#CBB184"/>
    </linearGradient>
    <linearGradient id="palaceGold" x1="0" y1="0" x2="1" y2="1">
      <stop stop-color="#FFF0A0"/><stop offset=".5" stop-color="#FFC93C"/><stop offset="1" stop-color="#EBA317"/>
    </linearGradient>
    <linearGradient id="woodArk" x1="0" y1="0" x2="0" y2="1">
      <stop stop-color="#8B572A"/><stop offset=".5" stop-color="#6F3F19"/><stop offset="1" stop-color="#4A260B"/>
    </linearGradient>
    <linearGradient id="stoneDen" x1="0" y1="0" x2="0" y2="1">
      <stop stop-color="#283547"/><stop offset=".6" stop-color="#182332"/><stop offset="1" stop-color="#0E1622"/>
    </linearGradient>
    <linearGradient id="fireCol" x1="0" y1="1" x2="0" y2="0">
      <stop stop-color="#FF4500"/><stop offset=".4" stop-color="#FF7A29"/><stop offset=".8" stop-color="#FFC93C"/><stop offset="1" stop-color="#FFF9D6"/>
    </linearGradient>
    <radialGradient id="divineLight">
      <stop stop-color="#FFFDE0" stop-opacity=".96"/><stop offset=".45" stop-color="#FFC93C" stop-opacity=".42"/><stop offset="1" stop-color="#FFC93C" stop-opacity="0"/>
    </radialGradient>
    <radialGradient id="angelGlow">
      <stop stop-color="#FFFFFF" stop-opacity=".98"/><stop offset=".4" stop-color="#FFE885" stop-opacity=".55"/><stop offset="1" stop-color="#FFE885" stop-opacity="0"/>
    </radialGradient>
    <radialGradient id="sunGlow">
      <stop stop-color="#FFF5B8" stop-opacity="1"/><stop offset=".35" stop-color="#FFC93C" stop-opacity=".8"/><stop offset="1" stop-color="#FF7A29" stop-opacity="0"/>
    </radialGradient>
    <filter id="softShadow" x="-30%" y="-30%" width="160%" height="180%">
      <feDropShadow dx="0" dy="12" stdDeviation="14" flood-color="#14213D" flood-opacity=".25"/>
    </filter>
    <filter id="cardShadow" x="-20%" y="-20%" width="140%" height="150%">
      <feDropShadow dx="0" dy="6" stdDeviation="8" flood-color="#0B1830" flood-opacity=".18"/>
    </filter>
    <filter id="glow" x="-80%" y="-80%" width="260%" height="260%">
      <feGaussianBlur stdDeviation="10" result="blur"/><feMerge><feMergeNode in="blur"/><feMergeNode in="SourceGraphic"/></feMerge>
    </filter>
    <filter id="strongGlow" x="-100%" y="-100%" width="300%" height="300%">
      <feGaussianBlur stdDeviation="18" result="blur"/><feMerge><feMergeNode in="blur"/><feMergeNode in="SourceGraphic"/></feMerge>
    </filter>
  </defs>


  <defs>
    <linearGradient id="edenDawn" x1="0" y1="0" x2="0" y2="1">
      <stop stop-color="#1D4689"/><stop offset=".34" stop-color="#63AFE2"/><stop offset=".72" stop-color="#FFC93C"/><stop offset="1" stop-color="#FFFBF0"/>
    </linearGradient>
    <linearGradient id="edenEvening" x1="0" y1="0" x2="0" y2="1">
      <stop stop-color="#14213D"/><stop offset=".38" stop-color="#1D4689"/><stop offset=".76" stop-color="#FF7A29"/><stop offset="1" stop-color="#FFC93C"/>
    </linearGradient>
    <linearGradient id="edenLeaf" x1="0" y1="0" x2="1" y2="1">
      <stop stop-color="#8BC66A"/><stop offset=".48" stop-color="#4E9A4D"/><stop offset="1" stop-color="#2F7B45"/>
    </linearGradient>
    <linearGradient id="edenBark" x1="0" y1="0" x2="1" y2="1">
      <stop stop-color="#B86E40"/><stop offset=".52" stop-color="#7B4A2B"/><stop offset="1" stop-color="#59321F"/>
    </linearGradient>
    <linearGradient id="edenRiver" x1="0" y1="0" x2="1" y2="1">
      <stop stop-color="#BDEBFA"/><stop offset=".48" stop-color="#68BDE7"/><stop offset="1" stop-color="#1D4689"/>
    </linearGradient>
    <linearGradient id="wovenAmber" x1="0" y1="0" x2="1" y2="1">
      <stop stop-color="#FFC93C"/><stop offset=".52" stop-color="#FF7A29"/><stop offset="1" stop-color="#B86E40"/>
    </linearGradient>
    <linearGradient id="wovenBlue" x1="0" y1="0" x2="1" y2="1">
      <stop stop-color="#68BDE7"/><stop offset=".5" stop-color="#1D4689"/><stop offset="1" stop-color="#14213D"/>
    </linearGradient>
    <radialGradient id="skinAdam" cx=".34" cy=".24" r=".85">
      <stop stop-color="#D58A56"/><stop offset=".58" stop-color="#A96135"/><stop offset="1" stop-color="#7B4A2B"/>
    </radialGradient>
    <radialGradient id="skinEva" cx=".34" cy=".24" r=".85">
      <stop stop-color="#E49A66"/><stop offset=".58" stop-color="#B86E40"/><stop offset="1" stop-color="#8B572A"/>
    </radialGradient>
    <linearGradient id="hairAdam" x1="0" y1="0" x2="1" y2="1">
      <stop stop-color="#7B4A2B"/><stop offset="1" stop-color="#3C251B"/>
    </linearGradient>
    <linearGradient id="hairEva" x1="0" y1="0" x2="1" y2="1">
      <stop stop-color="#9A5732"/><stop offset="1" stop-color="#59321F"/>
    </linearGradient>
    <linearGradient id="meadowPaint" x1="0" y1="0" x2="1" y2="1">
      <stop stop-color="#8BC66A"/><stop offset=".47" stop-color="#5CAD55"/><stop offset="1" stop-color="#397F45"/>
    </linearGradient>
    <pattern id="leafSpeckle" width="28" height="24" patternUnits="userSpaceOnUse">
      <circle cx="4" cy="5" r="2.5" fill="#FFFBF0" opacity=".18"/>
      <path d="M15 17q5-7 10-1" fill="none" stroke="#14213D" stroke-width="2" opacity=".11"/>
    </pattern>
    <pattern id="earthSpeckle" width="34" height="28" patternUnits="userSpaceOnUse">
      <circle cx="8" cy="8" r="2" fill="#59321F" opacity=".18"/><circle cx="26" cy="20" r="1.5" fill="#FFFBF0" opacity=".2"/>
      <path d="M12 23l8-5" stroke="#7B4A2B" stroke-width="2" opacity=".16"/>
    </pattern>
    <pattern id="clothWeave" width="18" height="18" patternUnits="userSpaceOnUse">
      <path d="M0 4h18M4 0v18" stroke="#FFFBF0" stroke-width="1.5" opacity=".16"/>
    </pattern>
    <filter id="edenDepth" x="-25%" y="-25%" width="150%" height="170%">
      <feDropShadow dx="0" dy="14" stdDeviation="11" flood-color="#14213D" flood-opacity=".22"/>
    </filter>
    <filter id="farBlur" x="-20%" y="-20%" width="140%" height="140%">
      <feGaussianBlur stdDeviation="2.4"/>
    </filter>
    <filter id="watercolorGlow" x="-30%" y="-30%" width="160%" height="160%">
      <feGaussianBlur stdDeviation="7"/>
    </filter>
  </defs>
      <rect width="1200" height="800" fill="url(#edenDawn)"/>
      <ellipse cx="888" cy="166" rx="255" ry="224" fill="url(#divineLight)" opacity=".9"/>
      <circle cx="888" cy="166" r="48" fill="#FFC93C" opacity=".82"/>

  <g transform="translate(230 167) scale(0.9)" fill="none" stroke="#14213D" stroke-width="6" stroke-linecap="round" opacity=".7">
    <path d="M0 16q18-25 36 0q18-25 36 0M102 0q14-20 28 0q14-20 28 0"/>
  </g>
      <g filter="url(#farBlur)" opacity=".77">
        <path d="M0 463Q195 344 403 458T765 427T1200 390V800H0z" fill="#8BC66A"/>
        <path d="M0 535Q205 431 420 535T815 492T1200 468V800H0z" fill="#5CAD55"/>
      </g>
      <path d="M0 623Q220 515 449 624T1200 558V800H0z" fill="url(#edenLeaf)"/>
      <path d="M0 623Q220 515 449 624T1200 558V800H0z" fill="url(#leafSpeckle)" opacity=".53"/>
      <path d="M393 800Q426 674 536 594Q646 513 821 385Q715 557 657 662Q618 732 613 800z" fill="#F3E9D7"/>
      <path d="M393 800Q426 674 536 594Q646 513 821 385Q715 557 657 662Q618 732 613 800z" fill="url(#earthSpeckle)" opacity=".68"/>
      <g transform="translate(894 386)" filter="url(#edenDepth)">
        <path d="M-76 170V-8M76 170V-8" stroke="#7B4A2B" stroke-width="30" stroke-linecap="round"/>
        <path d="M-108-6q32-92 108-94q77 1 108 94" fill="none" stroke="#59321F" stroke-width="28" stroke-linecap="round"/>
        <path d="M-77 22h154" stroke="#FFC93C" stroke-width="12" opacity=".8"/>
      </g>

    <g transform="translate(379 522) scale(0.86 0.86)" filter="url(#edenDepth)">
      <path d="M-20 112Q-32 168-62 218M20 112Q44 163 70 205" fill="none" stroke="url(#skinAdam)" stroke-width="25" stroke-linecap="round"/>
       <ellipse cx="-72" cy="222" rx="27" ry="12" fill="#59321F" transform="rotate(-13 -72 222)"/><ellipse cx="80" cy="209" rx="27" ry="12" fill="#59321F" transform="rotate(12 80 209)"/>
      <path d="M-34-18Q-72 19-91 55M34-18Q73 9 94 44" fill="none" stroke="url(#skinAdam)" stroke-width="22" stroke-linecap="round"/>
      <circle cx="-91" cy="55" r="12" fill="url(#skinAdam)"/><circle cx="94" cy="44" r="12" fill="url(#skinAdam)"/>
      <path d="M-47-54Q0-79 47-54L62 111Q42 137 0 130Q-42 139-62 111z" fill="url(#wovenBlue)"/>
      <path d="M-47-54Q0-79 47-54L62 111Q42 137 0 130Q-42 139-62 111z" fill="url(#clothWeave)"/>
      <path d="M-39-45Q0-18 42-45M-49 12q48 27 99 0" fill="none" stroke="#FFC93C" stroke-width="11" opacity=".72"/>
      <path d="M-45-48q12 79 5 144" fill="none" stroke="#FFFBF0" stroke-width="7" opacity=".12" stroke-linecap="round"/>


  <g transform="scale(1 1)">
    <ellipse cx="-42" cy="-102" rx="9" ry="14" fill="url(#skinAdam)"/><ellipse cx="42" cy="-102" rx="9" ry="14" fill="url(#skinAdam)"/>
    <ellipse cx="0" cy="-105" rx="42" ry="48" fill="url(#skinAdam)"/>
    <ellipse cx="-13" cy="-119" rx="21" ry="18" fill="#FFFBF0" opacity=".08" transform="rotate(-22 -13 -119)"/>
    <path d="M-43-111q4-51 47-55q45 4 44 59q-13-29-35-36q-27 24-56 25z" fill="url(#hairAdam)"/>
    <path d="M-36-127q9-17 20-23M-16-145q13-17 27-17M10-145q16-11 28-4M30-132q13-8 18 0" fill="none" stroke="url(#hairAdam)" stroke-width="14" stroke-linecap="round"/>
    <path d="M-26-114q10-8 20-1M7-115q10-7 20 1" fill="none" stroke="#59321F" stroke-width="3.5" stroke-linecap="round"/>
    <ellipse cx="-15" cy="-103" rx="6" ry="8" fill="#14213D"/><ellipse cx="16" cy="-103" rx="6" ry="8" fill="#14213D"/>
    <circle cx="-13" cy="-106" r="2" fill="#FFFBF0"/><circle cx="18" cy="-106" r="2" fill="#FFFBF0"/>
    <path d="M0-103l-5 14q5 4 11 0" fill="none" stroke="#7B4A2B" stroke-width="3" stroke-linecap="round"/>
    <path d="M-18-122q8-4 14 0M6-122q8-4 14 0M-14-78q14 16 28 0" fill="none" stroke="#59321F" stroke-width="4" stroke-linecap="round"/>
    <ellipse cx="-29" cy="-87" rx="9" ry="5" fill="#FF7A29" opacity=".22"/><ellipse cx="29" cy="-87" rx="9" ry="5" fill="#FF7A29" opacity=".22"/>
  </g>
      <path d="M-38-76q38 28 76 0q-2 39-38 42q-36-3-38-42z" fill="url(#hairAdam)" opacity=".88"/><path d="M-23-57q23 10 46 0" stroke="#B86E40" stroke-width="4" opacity=".5"/>


    </g>

    <g transform="translate(574 508) scale(0.87 0.87)" filter="url(#edenDepth)">
      <path d="M-20 112Q-32 168-62 218M20 112Q44 163 70 205" fill="none" stroke="url(#skinEva)" stroke-width="25" stroke-linecap="round"/>
       <ellipse cx="-72" cy="222" rx="27" ry="12" fill="#59321F" transform="rotate(-13 -72 222)"/><ellipse cx="80" cy="209" rx="27" ry="12" fill="#59321F" transform="rotate(12 80 209)"/>
      <path d="M-34-18Q-72 19-91 55M34-18Q73 9 94 44" fill="none" stroke="url(#skinEva)" stroke-width="22" stroke-linecap="round"/>
      <circle cx="-91" cy="55" r="12" fill="url(#skinEva)"/><circle cx="94" cy="44" r="12" fill="url(#skinEva)"/>
      <path d="M-47-54Q0-79 47-54L62 111Q42 137 0 130Q-42 139-62 111z" fill="url(#wovenAmber)"/>
      <path d="M-47-54Q0-79 47-54L62 111Q42 137 0 130Q-42 139-62 111z" fill="url(#clothWeave)"/>
      <path d="M-39-45Q0-18 42-45M-49 12q48 27 99 0" fill="none" stroke="#FFC93C" stroke-width="11" opacity=".72"/>
      <path d="M-45-48q12 79 5 144" fill="none" stroke="#FFFBF0" stroke-width="7" opacity=".12" stroke-linecap="round"/>


  <g transform="scale(1 1)">
    <ellipse cx="-42" cy="-102" rx="9" ry="14" fill="url(#skinEva)"/><ellipse cx="42" cy="-102" rx="9" ry="14" fill="url(#skinEva)"/>
    <ellipse cx="0" cy="-105" rx="42" ry="48" fill="url(#skinEva)"/>
    <ellipse cx="-13" cy="-119" rx="21" ry="18" fill="#FFFBF0" opacity=".08" transform="rotate(-22 -13 -119)"/>
    <path d="M-43-111q4-51 47-55q45 4 44 59q-13-29-35-36q-27 24-56 25z" fill="url(#hairEva)"/>
    <path d="M-36-127q9-17 20-23M-16-145q13-17 27-17M10-145q16-11 28-4M30-132q13-8 18 0" fill="none" stroke="url(#hairEva)" stroke-width="14" stroke-linecap="round"/>
    <path d="M-26-114q10-8 20-1M7-115q10-7 20 1" fill="none" stroke="#59321F" stroke-width="3.5" stroke-linecap="round"/>
    <ellipse cx="-15" cy="-103" rx="6" ry="8" fill="#14213D"/><ellipse cx="16" cy="-103" rx="6" ry="8" fill="#14213D"/>
    <circle cx="-13" cy="-106" r="2" fill="#FFFBF0"/><circle cx="18" cy="-106" r="2" fill="#FFFBF0"/>
    <path d="M0-103l-5 14q5 4 11 0" fill="none" stroke="#7B4A2B" stroke-width="3" stroke-linecap="round"/>
    <path d="M-18-122q8-4 14 0M6-122q8-4 14 0M-14-78q14 16 28 0" fill="none" stroke="#59321F" stroke-width="4" stroke-linecap="round"/>
    <ellipse cx="-29" cy="-87" rx="9" ry="5" fill="#FF7A29" opacity=".22"/><ellipse cx="29" cy="-87" rx="9" ry="5" fill="#FF7A29" opacity=".22"/>
  </g>
      <path d="M-39-135q-36 34-29 101M38-135q40 40 29 105" fill="none" stroke="url(#hairEva)" stroke-width="19" stroke-linecap="round"/><path d="M-53-68q9 22 0 45M53-68q-9 22 0 45" fill="none" stroke="#FFAF5C" stroke-width="4" opacity=".2"/>


    </g>
      <path d="M465 466q49-47 97 0" fill="none" stroke="#B86E40" stroke-width="18" stroke-linecap="round"/>
      <g transform="translate(712 665)" filter="url(#edenDepth)">
        <path d="M0 72V8" stroke="#2F7B45" stroke-width="9" stroke-linecap="round"/><path d="M0 38q-38-29-51-6q24 35 51 6M0 24q38-30 52-4q-25 34-52 4" fill="#5CAD55"/>
      </g>
      <g transform="translate(997 631)" filter="url(#edenDepth)">
        <path d="M0 55q35-42 74-8q-18 52-74 8z" fill="#FFFBF0"/><circle cx="58" cy="38" r="5" fill="#14213D"/>
        <path d="M72 46l24 9M17 58l-28 31" stroke="#FF7A29" stroke-width="6" stroke-linecap="round"/>
      </g>

  <g transform="translate(126 708) scale(0.68 0.68)">
    <g fill="none" stroke="#397F45" stroke-width="5" stroke-linecap="round">
      <path d="M0 48q2-31-13-52M3 47q12-29 28-42M64 48q-2-29-18-43M66 48q12-24 28-35M128 48q1-26-12-43M130 48q10-28 27-37"/>
    </g>
    <g stroke="#FFFBF0" stroke-width="3">
      <circle cx="-13" cy="-6" r="8" fill="#FF7A29"/><circle cx="31" cy="4" r="7" fill="#FFC93C"/>
      <circle cx="46" cy="3" r="7" fill="#FFAF5C"/><circle cx="94" cy="12" r="8" fill="#FF7A29"/>
      <circle cx="116" cy="3" r="7" fill="#FFC93C"/><circle cx="157" cy="9" r="7" fill="#FFAF5C"/>
    </g>
  </g>
  <g transform="translate(960 714) scale(-0.56 0.56)">
    <g fill="none" stroke="#397F45" stroke-width="5" stroke-linecap="round">
      <path d="M0 48q2-31-13-52M3 47q12-29 28-42M64 48q-2-29-18-43M66 48q12-24 28-35M128 48q1-26-12-43M130 48q10-28 27-37"/>
    </g>
    <g stroke="#FFFBF0" stroke-width="3">
      <circle cx="-13" cy="-6" r="8" fill="#FF7A29"/><circle cx="31" cy="4" r="7" fill="#FFC93C"/>
      <circle cx="46" cy="3" r="7" fill="#FFAF5C"/><circle cx="94" cy="12" r="8" fill="#FF7A29"/>
      <circle cx="116" cy="3" r="7" fill="#FFC93C"/><circle cx="157" cy="9" r="7" fill="#FFAF5C"/>
    </g>
  </g>
  <g transform="translate(748 454) scale(0.48 0.48)" filter="url(#edenDepth)">
    <path d="M0 0q-28-31-47-4q13 28 47 16q34 12 47-16Q28-31 0 0z" fill="#FFC93C" stroke="#FF7A29" stroke-width="4"/>
    <path d="M0-4v27M0-2l-9-12M0-2l9-12" fill="none" stroke="#14213D" stroke-width="3" stroke-linecap="round"/>
  </g>
      <g transform="translate(0 671) scale(1 1)" filter="url(#edenDepth)">
    <path d="M0 180Q95 66 180-30M0 215Q136 145 254 116M18 210Q55 90 24 5" fill="none" stroke="#2F7B45" stroke-width="22" stroke-linecap="round"/>
    <g fill="url(#edenLeaf)" stroke="#397F45" stroke-width="4">
      <ellipse cx="72" cy="88" rx="62" ry="27" transform="rotate(-42 72 88)"/><ellipse cx="137" cy="22" rx="69" ry="30" transform="rotate(-31 137 22)"/>
      <ellipse cx="172" cy="139" rx="70" ry="30" transform="rotate(-8 172 139)"/><ellipse cx="71" cy="165" rx="60" ry="27" transform="rotate(22 71 165)"/>
      <ellipse cx="33" cy="37" rx="51" ry="24" transform="rotate(72 33 37)"/>
    </g>
    <g fill="#FFC93C"><circle cx="114" cy="106" r="9"/><circle cx="203" cy="118" r="8"/><circle cx="48" cy="137" r="7"/></g>
  </g>

</svg>
