<svg xmlns="http://www.w3.org/2000/svg" width="1200" height="800" viewBox="0 0 1200 800" role="img" aria-label="José abraça e perdoa seus irmãos com lágrimas de amor">

  <defs>
    <linearGradient id="creamLight" x1="0" y1="0" x2="0" y2="1">
      <stop stop-color="#FFFBF0"/><stop offset="1" stop-color="#F3E9D7"/>
    </linearGradient>
    <linearGradient id="daySky" x1="0" y1="0" x2="0" y2="1">
      <stop stop-color="#63AFE2"/><stop offset=".6" stop-color="#CDEEFF"/><stop offset="1" stop-color="#FFF1C7"/>
    </linearGradient>
    <linearGradient id="morningSky" x1="0" y1="0" x2="0" y2="1">
      <stop stop-color="#4B779A"/><stop offset=".4" stop-color="#F7A064"/><stop offset=".8" stop-color="#FCE0B0"/><stop offset="1" stop-color="#FFF5D6"/>
    </linearGradient>
    <linearGradient id="sunsetSky" x1="0" y1="0" x2="0" y2="1">
      <stop stop-color="#14213D"/><stop offset=".35" stop-color="#1D4689"/><stop offset=".65" stop-color="#FF7A29"/><stop offset="1" stop-color="#FFC93C"/>
    </linearGradient>
    <linearGradient id="nightSky" x1="0" y1="0" x2="0" y2="1">
      <stop stop-color="#07152F"/><stop offset=".6" stop-color="#14213D"/><stop offset="1" stop-color="#1D4689"/>
    </linearGradient>
    <linearGradient id="stormSky" x1="0" y1="0" x2="0" y2="1">
      <stop stop-color="#121D2B"/><stop offset=".5" stop-color="#2D3E52"/><stop offset="1" stop-color="#4B627D"/>
    </linearGradient>
    <linearGradient id="water" x1="0" y1="0" x2="1" y2="1">
      <stop stop-color="#2C78BD"/><stop offset=".55" stop-color="#68BDE7"/><stop offset="1" stop-color="#BDEBFA"/>
    </linearGradient>
    <linearGradient id="oceanDeep" x1="0" y1="0" x2="0" y2="1">
      <stop stop-color="#08182B"/><stop offset=".5" stop-color="#133E6E"/><stop offset="1" stop-color="#246CA8"/>
    </linearGradient>
    <linearGradient id="seaWall" x1="0" y1="0" x2="1" y2="0">
      <stop stop-color="#1D659E" stop-opacity=".92"/><stop offset=".5" stop-color="#4FA6DF" stop-opacity=".85"/><stop offset="1" stop-color="#82D2F5" stop-opacity=".95"/>
    </linearGradient>
    <linearGradient id="garden" x1="0" y1="0" x2="0" y2="1">
      <stop stop-color="#7DBB5E"/><stop offset="1" stop-color="#2F7B45"/>
    </linearGradient>
    <linearGradient id="hills" x1="0" y1="0" x2="0" y2="1">
      <stop stop-color="#94CD6E"/><stop offset=".6" stop-color="#55A14A"/><stop offset="1" stop-color="#2C6E38"/>
    </linearGradient>
    <linearGradient id="desert" x1="0" y1="0" x2="0" y2="1">
      <stop stop-color="#F5DB99"/><stop offset=".65" stop-color="#DFB35A"/><stop offset="1" stop-color="#A87A2A"/>
    </linearGradient>
    <linearGradient id="sandDune" x1="0" y1="0" x2="0" y2="1">
      <stop stop-color="#FCEAB3"/><stop offset="1" stop-color="#E2B868"/>
    </linearGradient>
    <linearGradient id="palaceWall" x1="0" y1="0" x2="0" y2="1">
      <stop stop-color="#FFF7E3"/><stop offset=".7" stop-color="#E8D5B0"/><stop offset="1" stop-color="#CBB184"/>
    </linearGradient>
    <linearGradient id="palaceGold" x1="0" y1="0" x2="1" y2="1">
      <stop stop-color="#FFF0A0"/><stop offset=".5" stop-color="#FFC93C"/><stop offset="1" stop-color="#EBA317"/>
    </linearGradient>
    <linearGradient id="woodArk" x1="0" y1="0" x2="0" y2="1">
      <stop stop-color="#8B572A"/><stop offset=".5" stop-color="#6F3F19"/><stop offset="1" stop-color="#4A260B"/>
    </linearGradient>
    <linearGradient id="stoneDen" x1="0" y1="0" x2="0" y2="1">
      <stop stop-color="#283547"/><stop offset=".6" stop-color="#182332"/><stop offset="1" stop-color="#0E1622"/>
    </linearGradient>
    <linearGradient id="fireCol" x1="0" y1="1" x2="0" y2="0">
      <stop stop-color="#FF4500"/><stop offset=".4" stop-color="#FF7A29"/><stop offset=".8" stop-color="#FFC93C"/><stop offset="1" stop-color="#FFF9D6"/>
    </linearGradient>
    <radialGradient id="divineLight">
      <stop stop-color="#FFFDE0" stop-opacity=".96"/><stop offset=".45" stop-color="#FFC93C" stop-opacity=".42"/><stop offset="1" stop-color="#FFC93C" stop-opacity="0"/>
    </radialGradient>
    <radialGradient id="angelGlow">
      <stop stop-color="#FFFFFF" stop-opacity=".98"/><stop offset=".4" stop-color="#FFE885" stop-opacity=".55"/><stop offset="1" stop-color="#FFE885" stop-opacity="0"/>
    </radialGradient>
    <radialGradient id="sunGlow">
      <stop stop-color="#FFF5B8" stop-opacity="1"/><stop offset=".35" stop-color="#FFC93C" stop-opacity=".8"/><stop offset="1" stop-color="#FF7A29" stop-opacity="0"/>
    </radialGradient>
    <filter id="softShadow" x="-30%" y="-30%" width="160%" height="180%">
      <feDropShadow dx="0" dy="12" stdDeviation="14" flood-color="#14213D" flood-opacity=".25"/>
    </filter>
    <filter id="cardShadow" x="-20%" y="-20%" width="140%" height="150%">
      <feDropShadow dx="0" dy="6" stdDeviation="8" flood-color="#0B1830" flood-opacity=".18"/>
    </filter>
    <filter id="glow" x="-80%" y="-80%" width="260%" height="260%">
      <feGaussianBlur stdDeviation="10" result="blur"/><feMerge><feMergeNode in="blur"/><feMergeNode in="SourceGraphic"/></feMerge>
    </filter>
    <filter id="strongGlow" x="-100%" y="-100%" width="300%" height="300%">
      <feGaussianBlur stdDeviation="18" result="blur"/><feMerge><feMergeNode in="blur"/><feMergeNode in="SourceGraphic"/></feMerge>
    </filter>
  </defs>

      <rect width="1200" height="800" fill="url(#morningSky)"/>
      <circle cx="600" cy="260" r="320" fill="url(#divineLight)" opacity=".85"/>
      <!-- Salão aconchegante de banquete e reconciliação -->
      <path d="M0 500 L1200 500 L1200 800 L0 800 Z" fill="url(#palaceWall)"/>
      <!-- Mesa de banquete com frutas, pães e trigo -->
      <g transform="translate(600 680)" filter="url(#softShadow)">
        <rect x="-350" y="0" width="700" height="30" rx="6" fill="#8C5828"/>
        <path d="M-300 30 v70 M300 30 v70" stroke="#8C5828" stroke-width="24"/>
        <!-- Cesta de frutas e pães -->
        <ellipse cx="-150" cy="-10" rx="45" ry="18" fill="#FFC93C"/>
        <circle cx="-165" cy="-20" r="10" fill="#FF4D4F"/>
        <circle cx="-135" cy="-20" r="10" fill="#73D13D"/>
        <ellipse cx="150" cy="-10" rx="55" ry="20" fill="#FCEAB3"/>
      </g>
      <!-- Abraço emocionante de José e seus irmãos -->
      <g transform="translate(560 480)" filter="url(#softShadow)">
        <!-- José abraçando -->
        
    <g transform="translate(0 0) scale(1.25)" filter="url(#softShadow)">
      <!-- Pernas -->
      <path d="M-15 140 v65 M15 140 v65" stroke="#DDA876" stroke-width="18" stroke-linecap="round"/>
      <!-- Sandálias -->
      <path d="M-25 205 h20 M5 205 h20" stroke="#7A4D27" stroke-width="8" stroke-linecap="round"/>
      
        <!-- Túnica colorida -->
        
    <g transform="translate(0 0) scale(1)" filter="url(#softShadow)">
      <!-- Manto com listras multicoloridas -->
      <path d="M-45 20 C-30 -10 30 -10 45 20 L55 160 H-55 Z" fill="#FF4D4F"/>
      <!-- Listras coloridas verticais -->
      <path d="M-35 25 L-42 160 H-25 L-20 25 Z" fill="#FFA940"/>
      <path d="M-20 25 L-25 160 H-8 L-5 25 Z" fill="#FFEC3D"/>
      <path d="M-5 25 L-8 160 H8 L5 25 Z" fill="#73D13D"/>
      <path d="M5 25 L8 160 H25 L20 25 Z" fill="#40A9FF"/>
      <path d="M20 25 L25 160 H42 L35 25 Z" fill="#9254DE"/>
      <!-- Mangas compridas listradas -->
      <path d="M-45 20 Q-80 60 -65 110" stroke="#FF4D4F" stroke-width="22" stroke-linecap="round" fill="none"/>
      <path d="M-52 35 Q-75 60 -60 90" stroke="#FFEC3D" stroke-width="12" stroke-linecap="round" fill="none"/>
      <path d="M45 20 Q80 60 65 110" stroke="#FF4D4F" stroke-width="22" stroke-linecap="round" fill="none"/>
      <path d="M52 35 Q75 60 60 90" stroke="#40A9FF" stroke-width="12" stroke-linecap="round" fill="none"/>
      <!-- Gola dourada -->
      <ellipse cx="0" cy="18" rx="22" ry="10" fill="#FFD700"/>
    </g>
      
      <!-- Cabeça de José -->
      <circle cx="0" cy="-35" r="30" fill="#E8B084"/>
      <!-- Cabelo e olhos jovens -->
      <path d="M-30 -38 C-30 -70 30 -70 30 -38 C22 -62 -22 -62 -30 -38 Z" fill="#4A260B"/>
      <circle cx="-10" cy="-35" r="4" fill="#14213D"/>
      <circle cx="10" cy="-35" r="4" fill="#14213D"/>
      <path d="M-8 -20 Q0 -12 8 -20" stroke="#7A3918" stroke-width="3" fill="none" stroke-linecap="round"/>
      
    </g>
        <!-- Irmão chorando de alegria no abraço -->
        <g transform="translate(80 30)">
          <path d="M-30 40 Q0 10 30 40 L35 150 H-35 Z" fill="#8C5828"/>
          <circle cx="0" cy="-20" r="26" fill="#DDA876"/>
          <!-- Braços no abraço -->
          <path d="M-25 40 Q-50 20 -70 40" stroke="#DDA876" stroke-width="16" stroke-linecap="round" fill="none"/>
        </g>
      </g>
      <!-- Luz divina do perdão e amor -->
      <circle cx="600" cy="450" r="140" fill="#FFC93C" opacity=".2" filter="url(#strongGlow)"/>
    
</svg>
