<svg xmlns="http://www.w3.org/2000/svg" width="1200" height="800" viewBox="0 0 1200 800" role="img" aria-label="Enoque é levado para junto de Deus sob uma luz serena">

  <defs>
    <linearGradient id="creamLight" x1="0" y1="0" x2="0" y2="1">
      <stop stop-color="#FFFBF0"/><stop offset="1" stop-color="#F3E9D7"/>
    </linearGradient>
    <linearGradient id="daySky" x1="0" y1="0" x2="0" y2="1">
      <stop stop-color="#63AFE2"/><stop offset=".6" stop-color="#CDEEFF"/><stop offset="1" stop-color="#FFF1C7"/>
    </linearGradient>
    <linearGradient id="morningSky" x1="0" y1="0" x2="0" y2="1">
      <stop stop-color="#4B779A"/><stop offset=".4" stop-color="#F7A064"/><stop offset=".8" stop-color="#FCE0B0"/><stop offset="1" stop-color="#FFF5D6"/>
    </linearGradient>
    <linearGradient id="sunsetSky" x1="0" y1="0" x2="0" y2="1">
      <stop stop-color="#14213D"/><stop offset=".35" stop-color="#1D4689"/><stop offset=".65" stop-color="#FF7A29"/><stop offset="1" stop-color="#FFC93C"/>
    </linearGradient>
    <linearGradient id="nightSky" x1="0" y1="0" x2="0" y2="1">
      <stop stop-color="#07152F"/><stop offset=".6" stop-color="#14213D"/><stop offset="1" stop-color="#1D4689"/>
    </linearGradient>
    <linearGradient id="stormSky" x1="0" y1="0" x2="0" y2="1">
      <stop stop-color="#121D2B"/><stop offset=".5" stop-color="#2D3E52"/><stop offset="1" stop-color="#4B627D"/>
    </linearGradient>
    <linearGradient id="water" x1="0" y1="0" x2="1" y2="1">
      <stop stop-color="#2C78BD"/><stop offset=".55" stop-color="#68BDE7"/><stop offset="1" stop-color="#BDEBFA"/>
    </linearGradient>
    <linearGradient id="oceanDeep" x1="0" y1="0" x2="0" y2="1">
      <stop stop-color="#08182B"/><stop offset=".5" stop-color="#133E6E"/><stop offset="1" stop-color="#246CA8"/>
    </linearGradient>
    <linearGradient id="seaWall" x1="0" y1="0" x2="1" y2="0">
      <stop stop-color="#1D659E" stop-opacity=".92"/><stop offset=".5" stop-color="#4FA6DF" stop-opacity=".85"/><stop offset="1" stop-color="#82D2F5" stop-opacity=".95"/>
    </linearGradient>
    <linearGradient id="garden" x1="0" y1="0" x2="0" y2="1">
      <stop stop-color="#7DBB5E"/><stop offset="1" stop-color="#2F7B45"/>
    </linearGradient>
    <linearGradient id="hills" x1="0" y1="0" x2="0" y2="1">
      <stop stop-color="#94CD6E"/><stop offset=".6" stop-color="#55A14A"/><stop offset="1" stop-color="#2C6E38"/>
    </linearGradient>
    <linearGradient id="desert" x1="0" y1="0" x2="0" y2="1">
      <stop stop-color="#F5DB99"/><stop offset=".65" stop-color="#DFB35A"/><stop offset="1" stop-color="#A87A2A"/>
    </linearGradient>
    <linearGradient id="sandDune" x1="0" y1="0" x2="0" y2="1">
      <stop stop-color="#FCEAB3"/><stop offset="1" stop-color="#E2B868"/>
    </linearGradient>
    <linearGradient id="palaceWall" x1="0" y1="0" x2="0" y2="1">
      <stop stop-color="#FFF7E3"/><stop offset=".7" stop-color="#E8D5B0"/><stop offset="1" stop-color="#CBB184"/>
    </linearGradient>
    <linearGradient id="palaceGold" x1="0" y1="0" x2="1" y2="1">
      <stop stop-color="#FFF0A0"/><stop offset=".5" stop-color="#FFC93C"/><stop offset="1" stop-color="#EBA317"/>
    </linearGradient>
    <linearGradient id="woodArk" x1="0" y1="0" x2="0" y2="1">
      <stop stop-color="#8B572A"/><stop offset=".5" stop-color="#6F3F19"/><stop offset="1" stop-color="#4A260B"/>
    </linearGradient>
    <linearGradient id="stoneDen" x1="0" y1="0" x2="0" y2="1">
      <stop stop-color="#283547"/><stop offset=".6" stop-color="#182332"/><stop offset="1" stop-color="#0E1622"/>
    </linearGradient>
    <linearGradient id="fireCol" x1="0" y1="1" x2="0" y2="0">
      <stop stop-color="#FF4500"/><stop offset=".4" stop-color="#FF7A29"/><stop offset=".8" stop-color="#FFC93C"/><stop offset="1" stop-color="#FFF9D6"/>
    </linearGradient>
    <radialGradient id="divineLight">
      <stop stop-color="#FFFDE0" stop-opacity=".96"/><stop offset=".45" stop-color="#FFC93C" stop-opacity=".42"/><stop offset="1" stop-color="#FFC93C" stop-opacity="0"/>
    </radialGradient>
    <radialGradient id="angelGlow">
      <stop stop-color="#FFFFFF" stop-opacity=".98"/><stop offset=".4" stop-color="#FFE885" stop-opacity=".55"/><stop offset="1" stop-color="#FFE885" stop-opacity="0"/>
    </radialGradient>
    <radialGradient id="sunGlow">
      <stop stop-color="#FFF5B8" stop-opacity="1"/><stop offset=".35" stop-color="#FFC93C" stop-opacity=".8"/><stop offset="1" stop-color="#FF7A29" stop-opacity="0"/>
    </radialGradient>
    <filter id="softShadow" x="-30%" y="-30%" width="160%" height="180%">
      <feDropShadow dx="0" dy="12" stdDeviation="14" flood-color="#14213D" flood-opacity=".25"/>
    </filter>
    <filter id="cardShadow" x="-20%" y="-20%" width="140%" height="150%">
      <feDropShadow dx="0" dy="6" stdDeviation="8" flood-color="#0B1830" flood-opacity=".18"/>
    </filter>
    <filter id="glow" x="-80%" y="-80%" width="260%" height="260%">
      <feGaussianBlur stdDeviation="10" result="blur"/><feMerge><feMergeNode in="blur"/><feMergeNode in="SourceGraphic"/></feMerge>
    </filter>
    <filter id="strongGlow" x="-100%" y="-100%" width="300%" height="300%">
      <feGaussianBlur stdDeviation="18" result="blur"/><feMerge><feMergeNode in="blur"/><feMergeNode in="SourceGraphic"/></feMerge>
    </filter>
  </defs>

      <rect width="1200" height="800" fill="url(#sunsetSky)"/><circle cx="37" cy="29" r="1.8" fill="#FFFDE0" opacity="0.40"/><circle cx="126" cy="82" r="2.7" fill="#FFFDE0" opacity="0.50"/><circle cx="215" cy="135" r="3.6" fill="#FFFDE0" opacity="0.60"/><circle cx="304" cy="188" r="4.5" fill="#FFFDE0" opacity="0.70"/><circle cx="393" cy="241" r="1.8" fill="#FFFDE0" opacity="0.80"/><circle cx="482" cy="294" r="2.7" fill="#FFFDE0" opacity="0.90"/><circle cx="571" cy="347" r="3.6" fill="#FFFDE0" opacity="0.40"/><circle cx="660" cy="40" r="4.5" fill="#FFFDE0" opacity="0.50"/><circle cx="749" cy="93" r="1.8" fill="#FFFDE0" opacity="0.60"/><circle cx="838" cy="146" r="2.7" fill="#FFFDE0" opacity="0.70"/><circle cx="927" cy="199" r="3.6" fill="#FFFDE0" opacity="0.80"/><circle cx="1016" cy="252" r="4.5" fill="#FFFDE0" opacity="0.90"/><circle cx="1105" cy="305" r="1.8" fill="#FFFDE0" opacity="0.40"/><circle cx="1194" cy="358" r="2.7" fill="#FFFDE0" opacity="0.50"/><circle cx="83" cy="51" r="3.6" fill="#FFFDE0" opacity="0.60"/><circle cx="172" cy="104" r="4.5" fill="#FFFDE0" opacity="0.70"/><circle cx="261" cy="157" r="1.8" fill="#FFFDE0" opacity="0.80"/><circle cx="350" cy="210" r="2.7" fill="#FFFDE0" opacity="0.90"/><circle cx="439" cy="263" r="3.6" fill="#FFFDE0" opacity="0.40"/><circle cx="528" cy="316" r="4.5" fill="#FFFDE0" opacity="0.50"/><circle cx="617" cy="9" r="1.8" fill="#FFFDE0" opacity="0.60"/><circle cx="706" cy="62" r="2.7" fill="#FFFDE0" opacity="0.70"/><circle cx="795" cy="115" r="3.6" fill="#FFFDE0" opacity="0.80"/><circle cx="884" cy="168" r="4.5" fill="#FFFDE0" opacity="0.90"/><circle cx="973" cy="221" r="1.8" fill="#FFFDE0" opacity="0.40"/><circle cx="1062" cy="274" r="2.7" fill="#FFFDE0" opacity="0.50"/><circle cx="1151" cy="327" r="3.6" fill="#FFFDE0" opacity="0.60"/><circle cx="40" cy="20" r="4.5" fill="#FFFDE0" opacity="0.70"/><circle cx="129" cy="73" r="1.8" fill="#FFFDE0" opacity="0.80"/><circle cx="218" cy="126" r="2.7" fill="#FFFDE0" opacity="0.90"/><circle cx="307" cy="179" r="3.6" fill="#FFFDE0" opacity="0.40"/><circle cx="396" cy="232" r="4.5" fill="#FFFDE0" opacity="0.50"/>
      <path d="M0 555Q260 450 520 560T1200 510V800H0z" fill="#4C7A4B"/><path d="M0 680Q260 600 520 690T1200 640V800H0z" fill="#2F6040"/>
      <g transform="translate(170 720) scale(0.7 0.7)" fill="#F3E9D7" opacity=".92">
    <ellipse cx="0" cy="0" rx="13" ry="27" transform="rotate(-18)"/><ellipse cx="42" cy="48" rx="13" ry="27" transform="rotate(-18)"/>
    <ellipse cx="84" cy="96" rx="13" ry="27" transform="rotate(-18)"/><ellipse cx="126" cy="144" rx="13" ry="27" transform="rotate(-18)"/>
  </g>
  <g transform="translate(600 485) scale(0.9)" filter="url(#softShadow)">
    <circle cx="0" cy="-62" r="32" fill="#B86E40"/>
    <path d="M-36 -66q36-42 72 0v28q-36 28-72 0z" fill="#59321F"/>
    <circle cx="-11" cy="-62" r="4" fill="#14213D"/><circle cx="11" cy="-62" r="4" fill="#14213D"/>
    <path d="M-8-46q8 8 16 0" fill="none" stroke="#7B4A2B" stroke-width="4" stroke-linecap="round"/>
    <path d="M-52 180Q-38 18 0 8q38 10 52 172z" fill="#3B7080"/>
    <path d="M-34 174v76M34 174v76" stroke="#B86E40" stroke-width="18" stroke-linecap="round"/>
    <path d="M-34 55Q-95 5-112-42M34 55Q95 5 112-42" fill="none" stroke="#B86E40" stroke-width="17" stroke-linecap="round"/>
  </g>
      <ellipse cx="600" cy="180" rx="270" ry="230" fill="url(#angelGlow)" opacity=".9"/><path d="M520 230q80-110 160 0" fill="none" stroke="#FFF8C5" stroke-width="18" stroke-linecap="round"/>
      <path d="M505 300l-75 100M695 300l75 100" stroke="#FFF8C5" stroke-width="12" stroke-linecap="round" opacity=".8"/>
    
</svg>
